<svg xmlns="http://www.w3.org/2000/svg" viewBox="0 0 512 512" role="img" aria-labelledby="title desc">
  <title id="title">HEC Pakistan Logo Placeholder</title>
  <desc id="desc">Vector approximation used for proposal mockup; replace with official HEC artwork before production.</desc>
  <rect width="512" height="512" fill="#fff" rx="80"/>
  <path d="M256 70c28 42 68 47 68 47-54 12-87-9-105-41 14 8 26 5 37-6Z" fill="#00843d"/>
  <path d="M256 98l9 20 22 2-17 15 5 22-19-12-19 12 5-22-17-15 22-2 9-20Z" fill="#00843d"/>
  <g fill="none" stroke="#00843d" stroke-width="9" stroke-linecap="round" opacity=".9">
    <path d="M106 238c-38 72-18 151 42 194"/><path d="M406 238c38 72 18 151-42 194"/>
    <path d="M118 264l-25-19M133 304l-31-13M154 344l-35-6M184 383l-35 8M394 264l25-19M379 304l31-13M358 344l35-6M328 383l35 8"/>
  </g>
  <circle cx="256" cy="255" r="116" fill="#075985"/>
  <path d="M140 255a116 116 0 0 1 116-116v116H140Z" fill="#1e1b4b"/>
  <path d="M140 274h232M147 296h218M160 318h192" stroke="#fff" stroke-width="10"/>
  <text x="303" y="243" text-anchor="middle" font-family="Arial, sans-serif" font-weight="900" font-size="86" fill="#0284c7">HEC</text>
  <text x="256" y="339" text-anchor="middle" font-family="Arial, sans-serif" font-weight="700" font-size="34" fill="#fff">تحقیق</text>
  <path d="M118 434c90 34 186 34 276 0 8-3 17 2 18 11l5 35c-105 36-217 36-322 0l5-35c1-9 10-14 18-11Z" fill="#00843d"/>
  <text x="256" y="471" text-anchor="middle" font-family="Arial, sans-serif" font-weight="700" font-size="21" fill="#fff">HIGHER EDUCATION COMMISSION</text>
</svg>
