<svg xmlns="http://www.w3.org/2000/svg" viewBox="0 0 512 512" role="img" aria-labelledby="title desc">
  <title id="title">NRPU 26/27 Concept Logo</title>
  <desc id="desc">A geometric research orbit and book mark for National Research Program for Universities.</desc>
  <defs>
    <linearGradient id="g" x1="0" x2="1" y1="0" y2="1"><stop stop-color="#0b7a75"/><stop offset="1" stop-color="#1d4ed8"/></linearGradient>
    <filter id="s" x="-20%" y="-20%" width="140%" height="140%"><feDropShadow dx="0" dy="10" stdDeviation="12" flood-opacity=".18"/></filter>
  </defs>
  <rect width="512" height="512" rx="112" fill="#f6fffb"/>
  <circle cx="256" cy="256" r="174" fill="none" stroke="url(#g)" stroke-width="22" opacity=".95"/>
  <path d="M118 296c77 34 200 33 276-5" fill="none" stroke="#073b4c" stroke-width="24" stroke-linecap="round" opacity=".92"/>
  <path d="M148 210c65-38 154-38 219 0" fill="none" stroke="#0b7a75" stroke-width="18" stroke-linecap="round" opacity=".55"/>
  <path d="M161 326h190c17 0 31 14 31 31v29H192c-17 0-31-14-31-31v-29Z" fill="url(#g)" filter="url(#s)"/>
  <path d="M161 326h167c17 0 31 14 31 31v4H192c-17 0-31-14-31-31v-4Z" fill="#ffffff" opacity=".8"/>
  <circle cx="256" cy="184" r="42" fill="#10b981"/>
  <path d="M256 128l15 35 38 3-29 25 9 37-33-20-33 20 9-37-29-25 38-3 15-35Z" fill="#ffffff"/>
  <text x="256" y="287" text-anchor="middle" font-family="Inter, Arial, sans-serif" font-weight="900" font-size="74" fill="#073b4c">NRPU</text>
</svg>
